<?xml version="1.0" standalone="no"?>
<!DOCTYPE svg PUBLIC "-//W3C//DTD SVG 20010904//EN"
 "http://www.w3.org/TR/2001/REC-SVG-20010904/DTD/svg10.dtd">
<svg version="1.0" xmlns="http://www.w3.org/2000/svg"
 width="1024.000000pt" height="1024.000000pt" viewBox="0 0 1024.000000 1024.000000"
 preserveAspectRatio="xMidYMid meet">
<metadata>
Created by potrace 1.14, written by Peter Selinger 2001-2017
</metadata>
<g transform="translate(0.000000,1024.000000) scale(0.100000,-0.100000)"
fill="#000000" stroke="none">
<path d="M4829 8838 c-1 -5 -2 -12 -3 -17 0 -5 -29 -40 -63 -78 -34 -37 -75
-86 -91 -108 -16 -22 -41 -52 -56 -67 -17 -16 -25 -32 -20 -39 4 -7 3 -9 -4
-6 -13 9 -74 -64 -79 -93 -4 -29 41 -70 69 -62 13 3 19 1 15 -5 -4 -6 -1 -15
6 -21 9 -8 20 3 42 46 16 31 51 79 77 105 46 46 135 97 171 97 15 0 22 11 18
33 0 4 3 6 7 5 4 -2 22 13 40 33 l31 36 -69 65 c-39 36 -70 62 -70 59 0 -3 -5
1 -10 9 -5 8 -10 12 -11 8z m-38 -87 c-6 -10 -8 -21 -6 -25 3 -3 2 -4 -2 -1
-3 3 -12 -3 -19 -13 -7 -9 -14 -12 -14 -6 0 11 38 64 46 64 3 0 0 -8 -5 -19z
m2 -68 c5 -26 4 -26 -9 -9 -7 10 -11 23 -8 27 8 14 11 11 17 -18z m-51 -1 c-8
-5 -10 -16 -6 -27 5 -12 4 -16 -4 -11 -7 4 -27 -10 -48 -34 -20 -22 -40 -40
-45 -40 -4 0 2 11 14 23 12 13 35 40 50 60 15 21 33 37 40 37 9 0 9 -2 -1 -8z
m100 -63 c16 -8 23 -8 30 2 8 11 9 11 6 -1 -3 -8 -18 -15 -38 -16 -19 -1 -27
1 -20 6 10 6 8 9 -6 13 -10 2 -13 5 -6 6 7 0 23 -4 34 -10z m-37 -29 c3 -5 -1
-10 -9 -10 -9 0 -16 5 -16 10 0 6 4 10 9 10 6 0 13 -4 16 -10z m-175 -74 c0
-2 -8 -10 -17 -17 -16 -13 -17 -12 -4 4 13 16 21 21 21 13z m-85 -87 c-5 -14
-4 -19 4 -15 7 5 9 1 5 -8 -3 -9 -10 -16 -16 -16 -5 0 -6 5 -3 10 3 6 1 10 -4
10 -7 0 -7 7 1 20 16 26 21 25 13 -1z m59 -41 c-2 -3 -13 -6 -24 -5 -24 2 -18
13 9 13 11 0 18 -4 15 -8z"/>
<path d="M5180 8813 c0 -5 -14 -16 -31 -25 -18 -11 -27 -22 -23 -29 4 -7 3 -9
-4 -5 -6 3 -28 -8 -48 -26 -21 -18 -40 -33 -43 -32 -3 0 -4 -8 -3 -20 7 -39
46 -75 106 -98 79 -29 164 -108 207 -193 33 -63 34 -64 54 -46 21 20 78 51 93
51 5 0 9 -124 9 -277 1 -257 -1 -275 -16 -256 -9 12 -43 55 -75 97 l-59 76
-34 -50 c-33 -49 -144 -140 -170 -140 -18 0 -16 -17 3 -24 20 -8 144 -87 144
-92 0 -2 -136 -4 -302 -4 -338 0 -332 -2 -200 65 39 20 72 41 72 45 0 5 -10
12 -22 16 -41 12 -119 76 -161 132 -23 31 -43 49 -45 42 -4 -10 -146 -227
-156 -237 -1 -1 1 23 5 55 4 31 8 171 8 310 1 166 4 251 11 247 12 -8 13 5 1
24 -7 11 -11 10 -20 -7 -6 -12 -22 -33 -35 -47 -13 -14 -27 -41 -30 -59 -4
-19 -12 -39 -19 -44 -7 -6 -64 -22 -127 -36 -63 -14 -137 -30 -165 -36 -27 -6
-59 -11 -69 -11 -19 0 -265 240 -362 354 l-49 58 -50 -25 c-27 -14 -194 -95
-369 -181 -176 -85 -321 -157 -323 -159 -2 -2 25 -93 61 -202 59 -181 121
-404 114 -408 -2 -1 -32 -21 -68 -43 -36 -23 -77 -47 -92 -54 -15 -6 -25 -16
-21 -22 3 -6 2 -8 -3 -4 -5 3 -20 0 -33 -7 -17 -9 -36 -11 -62 -5 -52 12 -153
51 -217 83 l-52 26 -159 -117 c-87 -65 -204 -151 -260 -191 l-101 -74 6 -61
c5 -57 -8 -318 -22 -428 l-6 -46 82 -92 83 -92 -63 -212 c-35 -117 -69 -228
-77 -248 l-14 -36 -118 -18 -119 -17 -116 -222 c-64 -121 -146 -276 -182 -344
l-66 -123 35 -42 c19 -23 101 -112 181 -197 80 -85 146 -163 146 -172 0 -16
79 -115 104 -130 19 -11 66 3 66 21 1 41 39 100 83 126 109 63 245 9 263 -106
6 -34 10 -39 34 -39 68 0 134 -81 134 -165 0 -84 -66 -165 -134 -165 -24 0
-28 -4 -33 -40 -11 -85 -67 -130 -162 -130 -99 0 -161 46 -172 127 -5 38 -8
41 -44 46 -21 3 -52 15 -69 27 -16 12 -30 19 -30 16 0 -3 24 -34 53 -68 29
-35 72 -90 94 -123 23 -33 78 -100 124 -150 116 -127 139 -161 139 -204 0 -32
-63 -297 -72 -306 -2 -2 -147 -95 -155 -99 -1 -1 7 -94 18 -209 l18 -207 61
-138 c33 -75 70 -149 83 -164 63 -76 245 -261 269 -274 15 -8 38 -24 50 -37
13 -12 20 -18 16 -13 -19 24 -8 34 29 26 20 -5 41 -7 45 -4 4 3 8 -1 8 -9 0
-10 26 -19 88 -31 48 -10 102 -21 120 -26 18 -5 32 -4 32 1 0 5 65 9 145 8 80
0 150 3 155 6 37 23 90 6 140 -45 34 -35 81 -60 112 -60 22 0 37 -17 54 -62 3
-10 10 -18 15 -18 12 0 15 67 18 388 l1 193 231 -1 c127 -1 233 1 236 4 3 2 2
23 -2 45 l-6 39 -36 -24 c-28 -19 -49 -24 -94 -24 -72 0 -116 20 -152 70 -40
56 -45 116 -16 177 27 55 29 72 13 93 -6 8 -29 49 -52 91 l-41 77 65 33 c35
18 64 39 64 46 0 7 5 14 10 14 15 2 22 4 53 17 16 7 35 12 43 12 8 0 13 4 9 9
-5 8 95 -24 285 -94 25 -9 113 -36 195 -61 83 -25 155 -50 160 -55 6 -6 10
-77 10 -172 0 -89 -2 -146 -6 -127 -4 22 -7 27 -8 13 -2 -32 -20 -29 -32 5 -5
15 -21 35 -34 44 -24 18 -55 15 -55 -5 0 -5 -9 -2 -20 8 -20 18 -20 17 -20
-240 l0 -257 30 -38 c78 -98 79 -201 3 -289 -88 -103 -269 -85 -338 33 -53 91
-41 187 34 260 40 39 125 71 156 59 13 -4 15 15 15 128 l0 134 -70 -3 -69 -4
-3 -61 -3 -62 -81 0 -81 0 -5 -253 c-3 -139 -7 -255 -10 -257 -3 -3 -86 -8
-185 -11 -168 -5 -182 -4 -192 13 -15 25 -13 3 2 -24 13 -23 223 -239 301
-311 26 -23 52 -40 57 -37 5 4 6 -1 3 -9 -3 -9 -2 -16 4 -16 5 0 12 7 16 15 7
19 40 19 56 0 7 -8 18 -15 25 -15 8 0 15 -6 17 -12 4 -10 40 -13 136 -13 90 0
135 -4 144 -13 14 -14 38 -16 38 -3 0 5 -8 12 -17 14 -10 3 35 4 99 2 65 -2
127 -9 138 -15 15 -8 20 -8 20 1 0 8 21 9 76 4 46 -4 79 -3 83 2 8 13 81 24
81 12 0 -15 15 -11 40 11 14 12 31 18 42 14 23 -7 49 12 42 31 -7 18 36 31 46
14 5 -7 16 -14 26 -15 12 -2 14 0 5 9 -6 6 -11 18 -11 25 0 8 37 -24 82 -73
83 -88 151 -141 168 -130 6 3 7 -1 4 -9 -5 -13 1 -16 28 -16 19 0 49 -7 66
-16 17 -8 55 -16 84 -16 29 0 58 -5 65 -10 18 -15 113 23 113 44 0 14 8 18 39
18 23 0 41 -5 44 -12 3 -10 8 -10 21 1 12 10 14 16 5 21 -13 9 9 48 53 94 15
16 33 45 39 65 6 20 19 44 27 54 14 16 14 20 2 28 -13 9 -13 10 0 6 9 -2 14
-14 12 -26 -2 -20 -1 -21 14 -7 14 15 13 20 -18 59 -68 88 -82 99 -124 99 -21
0 -33 3 -26 5 20 8 13 25 -8 18 -15 -5 -18 -3 -14 10 4 9 8 14 11 12 2 -2 23
-1 47 4 26 5 58 4 77 -1 23 -7 35 -6 40 2 5 7 24 9 61 3 29 -4 64 -7 78 -6
240 13 261 13 283 -6 l22 -18 -18 22 c-10 12 -19 27 -21 35 -1 7 -6 20 -11 28
-5 9 -1 8 13 -4 12 -10 20 -23 19 -30 -1 -6 4 -10 11 -8 6 1 11 -1 10 -5 -2
-5 29 -39 69 -77 40 -38 70 -73 67 -78 -3 -5 0 -7 8 -6 7 2 12 -3 10 -11 -2
-11 0 -12 11 -3 9 8 24 9 51 1 32 -9 47 -6 107 16 38 15 69 31 69 36 0 5 10 9
23 9 23 0 74 61 63 78 -9 14 23 52 39 46 9 -4 16 0 16 7 1 8 3 21 3 29 1 8 10
32 21 53 16 31 17 42 7 57 -16 26 -15 33 4 26 17 -6 47 17 37 28 -4 4 3 17 15
29 42 42 72 78 72 88 0 10 37 96 51 119 5 8 12 23 15 33 8 22 7 22 54 -8 22
-14 47 -25 55 -25 9 0 28 -6 43 -14 82 -41 368 -72 436 -46 13 5 54 11 89 14
98 8 144 34 180 101 11 20 16 24 17 13 0 -30 20 -20 20 10 0 15 7 38 16 50 9
13 14 25 11 28 -5 5 0 28 25 121 11 38 11 50 3 46 -8 -2 -12 6 -12 22 0 14 -8
34 -18 45 -14 16 -15 23 -6 34 10 11 9 16 -3 23 -11 6 -12 13 -6 23 8 13 10
12 10 -2 0 -10 5 -18 10 -18 19 0 10 21 -28 63 -21 23 -66 76 -99 117 l-61 75
25 90 c63 225 55 207 78 186 15 -15 26 -17 44 -10 14 6 31 7 38 4 8 -2 12 -1
9 3 -2 4 13 8 35 8 24 1 36 -2 32 -9 -4 -6 2 -8 15 -5 12 4 20 1 19 -5 -4 -20
65 -25 152 -10 47 8 88 19 91 24 3 4 30 15 60 22 39 10 56 20 59 33 1 11 16
32 32 48 16 15 29 37 29 47 0 10 9 23 19 29 13 6 19 20 19 39 -1 15 3 34 7 41
4 7 9 33 11 59 1 25 8 47 13 49 6 2 11 7 11 11 0 7 -53 77 -152 201 -38 47
-68 90 -68 97 0 7 -5 12 -12 10 -7 -1 -12 3 -13 9 0 6 -11 22 -25 35 -15 13
-18 17 -7 9 18 -14 18 -13 6 13 -7 15 -16 27 -21 27 -4 0 -8 8 -8 18 0 10 -5
23 -12 30 -9 9 -8 12 8 12 12 0 15 3 7 8 -17 11 36 113 56 109 8 -1 17 9 21
23 4 17 12 24 26 23 24 -3 126 17 139 27 6 4 22 10 37 14 61 14 81 106 34 155
-19 19 -24 33 -20 46 6 14 4 17 -7 13 -11 -4 -14 2 -14 26 1 20 -3 33 -11 33
-9 0 -10 -5 -3 -18 6 -12 5 -20 -3 -25 -7 -4 -10 -4 -6 1 11 12 -11 47 -25 39
-7 -4 -4 2 6 13 15 18 16 23 3 53 -8 19 -11 50 -8 72 5 42 -17 83 -78 146 -17
19 -29 40 -26 48 3 9 -1 14 -12 14 -16 0 -37 18 -56 49 -7 10 -3 11 13 6 38
-12 36 21 -5 70 -40 49 -39 54 16 75 19 7 54 34 77 58 59 63 60 74 3 132 -57
58 -58 86 -2 96 20 3 56 17 80 29 23 13 42 19 42 13 0 -6 6 -6 15 2 8 7 15 19
15 28 0 9 4 29 9 46 5 17 15 50 22 73 7 27 19 45 32 49 14 4 16 9 8 17 -18 18
-12 31 7 16 10 -8 8 -5 -4 7 -11 11 -23 25 -25 31 -2 6 -79 88 -171 183 l-167
174 -60 -30 c-53 -26 -60 -32 -61 -59 -1 -51 -26 -130 -66 -209 -21 -42 -42
-76 -45 -76 -4 0 -16 23 -29 51 l-22 52 32 94 c18 52 28 98 24 103 -5 4 -44
27 -86 50 l-78 42 0 -34 c0 -18 -9 -65 -20 -103 -19 -64 -19 -71 -4 -80 99
-61 130 -161 107 -348 l-8 -68 -60 42 c-33 23 -61 43 -63 45 -2 1 6 21 18 43
37 73 29 120 -28 174 l-29 28 -36 -24 c-66 -44 -149 -43 -224 3 -18 11 -33 23
-33 28 0 5 51 24 113 43 l112 34 32 95 c38 111 40 141 14 240 -11 41 -19 75
-18 76 1 1 38 -19 82 -43 111 -63 227 -115 222 -100 -2 6 -10 11 -16 9 -7 -1
-10 2 -6 8 3 6 10 8 14 5 5 -2 16 2 26 9 17 12 15 13 -22 11 -22 -1 -45 -5
-50 -8 -6 -4 -14 0 -17 8 -3 9 -1 15 7 14 25 -3 36 2 40 19 4 13 5 11 6 -5 1
-27 8 -28 35 -8 19 15 19 15 -1 37 -11 13 -32 36 -47 52 -14 16 -26 41 -26 55
0 20 2 23 10 11 8 -13 10 -13 10 1 0 9 7 19 15 23 9 3 15 17 14 33 l-1 28 -9
-25 c-7 -21 -8 -20 -4 9 3 18 5 38 5 43 0 5 4 7 9 4 5 -4 15 25 22 64 7 38 17
70 22 70 5 0 4 6 -2 14 -9 11 -8 15 5 20 25 10 36 7 28 -6 -4 -7 -3 -10 1 -5
5 4 18 -1 29 -10 12 -9 5 -1 -14 18 -19 20 -132 142 -250 273 l-215 237 -3
-371 -2 -370 -340 0 -340 0 0 380 0 380 158 0 158 0 -9 98 c-4 53 -6 109 -4
125 2 15 0 27 -5 27 -5 0 -6 5 -3 10 4 6 10 8 15 5 5 -3 12 0 16 6 4 7 3 9 -3
6 -6 -4 -13 -1 -16 7 -10 26 5 25 42 -2 20 -15 -79 95 -220 243 -141 149 -282
300 -314 337 -52 60 -61 66 -89 62 -17 -2 -110 -13 -206 -25 -96 -12 -179 -23
-183 -26 -7 -4 26 -68 42 -83 4 -3 7 -12 9 -20 4 -18 22 -40 32 -40 4 0 18 24
30 53 27 64 47 87 74 87 36 0 47 -31 35 -95 -13 -70 -10 -77 35 -99 36 -17 36
-17 61 11 14 15 33 40 42 56 10 15 20 27 23 27 10 0 80 -61 80 -70 0 -4 -18
-31 -40 -59 -22 -28 -40 -56 -40 -63 0 -7 10 -25 23 -41 l22 -27 53 25 c30 14
60 25 67 25 18 0 48 -79 36 -94 -5 -6 -34 -20 -63 -30 -54 -19 -82 -36 -60
-36 16 0 16 -60 0 -60 -26 -1 38 -29 80 -36 l42 -6 0 -55 0 -55 -42 7 c-24 4
-60 14 -80 21 l-38 13 -20 -40 -21 -40 31 -39 c18 -22 36 -40 41 -40 5 0 9 -4
9 -10 0 -14 -60 -80 -73 -80 -6 0 -30 18 -52 40 l-41 40 -48 -17 c-39 -15 -46
-21 -41 -38 3 -11 8 -47 11 -81 7 -61 7 -61 -22 -68 -22 -6 -31 -3 -39 9 -55
94 -76 108 -104 74 -12 -13 -28 -39 -36 -57 -12 -29 -18 -32 -42 -26 -45 11
-48 19 -35 82 16 79 17 75 -29 101 l-41 23 -47 -46 -47 -47 -37 36 c-20 20
-37 39 -37 44 0 4 18 28 41 52 l41 44 -18 34 c-24 43 -34 46 -91 27 -71 -24
-81 -22 -93 25 -6 23 -9 43 -7 45 2 3 31 15 63 27 59 23 59 23 60 65 0 42 0
42 -53 62 -30 11 -58 20 -63 20 -13 0 -12 11 1 66 6 25 17 44 25 44 7 0 36 -9
64 -20 28 -11 54 -20 58 -20 4 0 18 16 30 36 l24 36 -43 44 c-29 29 -49 42
-60 39 -10 -3 -27 -8 -40 -10 -12 -2 -24 -7 -28 -10 -3 -3 9 -4 26 0 18 3 34
1 37 -4 3 -5 0 -9 -7 -8 -33 1 -48 -4 -41 -14 4 -8 0 -8 -15 0 -23 13 -45 6
-35 -10 3 -5 10 -6 16 -3 7 5 8 2 3 -7 -7 -10 -37 17 -117 101 -192 202 -393
434 -508 588 -50 66 -70 84 -70 65z m-1552 -440 c6 -16 30 -71 53 -123 23 -52
72 -169 109 -260 l67 -165 40 -3 c45 -3 45 -4 93 -133 l29 -77 -167 -78 c-92
-43 -252 -121 -356 -172 -104 -51 -194 -91 -200 -89 -18 7 -96 165 -96 193 0
17 9 30 30 42 22 13 28 22 23 37 -3 11 -61 131 -129 266 -67 135 -126 257
-129 272 -7 26 -2 29 277 165 155 77 290 142 298 145 32 12 48 6 58 -20z m595
-190 c-7 -2 -19 -2 -25 0 -7 3 -2 5 12 5 14 0 19 -2 13 -5z m-88 -73 c3 -6 -1
-7 -9 -4 -18 7 -21 14 -7 14 6 0 13 -4 16 -10z m1899 -48 c3 -5 -1 -9 -9 -9
-8 0 -12 4 -9 9 3 4 7 8 9 8 2 0 6 -4 9 -8z m-1453 -459 c13 -16 12 -17 -3 -4
-10 7 -18 15 -18 17 0 8 8 3 21 -13z m193 -166 c39 -40 104 -107 145 -150 l73
-78 -23 -17 c-12 -9 -47 -31 -76 -48 -29 -17 -50 -34 -46 -39 5 -4 3 -5 -4 -1
-6 3 -14 2 -18 -4 -8 -14 -45 -13 -45 1 0 7 -10 9 -27 5 -22 -5 -24 -4 -13 4
13 9 8 17 -30 48 -69 58 -210 194 -231 224 l-19 26 110 42 c60 24 110 47 110
51 0 23 29 3 94 -64z m-2150 -69 c3 -17 6 -40 6 -52 0 -16 14 -28 58 -48 l57
-27 30 30 c17 16 36 29 42 29 7 0 39 -24 71 -52 l59 -53 -40 -35 -40 -36 27
-51 c24 -49 28 -52 67 -55 l42 -3 1 -120 1 -120 -46 -3 c-45 -3 -46 -4 -63
-52 l-18 -49 33 -29 33 -29 -42 -49 c-68 -76 -72 -78 -116 -40 l-38 32 -42
-20 c-42 -19 -76 -70 -76 -113 0 -28 -17 -33 -105 -33 -80 0 -85 4 -85 76 0
27 -7 34 -54 59 l-54 28 -37 -31 c-19 -18 -40 -32 -44 -32 -13 0 -111 110
-111 124 0 6 13 20 30 29 32 19 31 27 -5 97 -14 27 -21 30 -60 30 l-45 0 0
125 0 125 43 0 c41 0 43 1 69 55 l26 54 -36 30 -37 30 43 44 c69 70 83 75 127
41 l36 -27 55 26 54 27 0 48 c0 27 2 51 4 53 2 2 42 3 89 1 l85 -3 6 -31z
m336 -23 c14 -19 14 -19 -2 -6 -10 7 -18 18 -18 24 0 6 1 8 3 6 1 -2 9 -13 17
-24z m156 -133 c16 -2 35 -7 43 -11 18 -11 23 -54 5 -47 -7 3 -15 0 -18 -7 -3
-8 -10 -5 -21 8 -9 11 -30 36 -48 55 -45 48 -58 72 -20 36 18 -17 44 -31 59
-34z m1998 -115 c34 -32 51 -54 39 -48 -22 11 -23 10 -23 -33 0 -25 5 -48 10
-51 12 -7 4 -25 -11 -25 -5 0 -9 7 -9 16 0 11 -5 14 -16 10 -9 -3 -20 -6 -25
-6 -6 0 -9 -23 -8 -50 2 -38 -2 -53 -14 -63 -10 -6 -21 -25 -25 -41 -14 -53
-32 -43 -32 18 0 49 2 56 20 56 11 0 20 7 20 15 0 8 -4 15 -10 15 -5 0 -10 -4
-10 -10 0 -5 -4 -10 -10 -10 -6 0 -10 59 -10 157 l0 156 27 -24 c14 -13 53
-50 87 -82z m-1939 23 c3 -6 -1 -7 -9 -4 -18 7 -21 14 -7 14 6 0 13 -4 16 -10z
m1545 -5 c0 -8 -4 -15 -10 -15 -5 0 -10 7 -10 15 0 8 5 15 10 15 6 0 10 -7 10
-15z m30 -40 c-29 -17 -54 -19 -45 -5 4 6 10 8 14 6 4 -3 13 -1 21 5 8 5 20 9
25 8 6 0 -1 -6 -15 -14z m-1340 2 c0 -2 -10 -12 -22 -23 l-23 -19 19 23 c18
21 26 27 26 19z m81 -99 c-12 -11 -13 -10 -8 5 8 21 -9 23 -17 2 -8 -21 20
-31 41 -14 12 10 15 10 9 2 -4 -8 -2 -13 8 -13 13 0 76 -66 76 -80 0 -3 -34
-22 -75 -43 l-75 -39 -27 34 c-16 18 -47 53 -71 77 -51 52 -71 84 -47 75 8 -4
15 -1 15 5 0 6 -7 11 -15 11 -8 0 -15 5 -15 10 0 6 5 10 11 10 6 0 17 7 25 15
9 8 21 15 27 15 7 0 4 -5 -6 -11 -11 -7 -16 -17 -12 -29 3 -10 1 -21 -5 -25
-5 -3 -10 -13 -10 -21 0 -29 30 12 31 43 1 17 3 21 6 11 5 -22 39 -24 47 -3 3
8 15 15 27 15 18 0 19 2 9 15 -10 12 -16 13 -29 3 -14 -12 -15 -11 -2 5 14 17
17 16 55 -22 34 -34 38 -43 27 -53z m-211 22 c0 -6 -9 -2 -20 7 -11 10 -20 19
-20 21 0 1 9 -2 20 -8 11 -6 20 -15 20 -20z m1953 -13 c-4 -6 0 -8 11 -4 9 4
15 3 11 -2 -3 -5 -2 -11 2 -14 5 -2 1 -2 -7 1 -8 3 -22 5 -30 6 -10 0 -16 10
-15 27 0 26 1 26 17 12 10 -9 15 -20 11 -26z m752 -17 c3 -5 -1 -10 -10 -10
-9 0 -13 5 -10 10 3 6 8 10 10 10 2 0 7 -4 10 -10z m94 -17 c-11 -15 -11 -16
1 -5 16 14 63 16 88 3 9 -5 26 -13 37 -16 13 -5 15 -9 8 -12 -7 -3 -13 -9 -13
-14 0 -13 34 -11 48 3 8 8 15 8 27 -2 8 -7 15 -9 15 -6 0 4 7 0 16 -8 17 -18
56 -21 83 -7 11 6 22 6 32 -1 11 -8 11 -9 -3 -4 -12 3 -18 0 -18 -10 0 -10 6
-14 18 -10 17 5 62 -24 62 -41 0 -6 -33 -32 -72 -59 -40 -27 -78 -56 -85 -64
-6 -8 -15 -12 -19 -7 -4 4 -2 7 6 7 7 0 -25 25 -71 56 -132 89 -237 177 -236
197 1 13 10 17 45 17 41 0 43 -1 31 -17z m1961 2 c0 -8 -4 -15 -10 -15 -5 0
-7 7 -4 15 4 8 8 15 10 15 2 0 4 -7 4 -15z m-1705 -55 c3 -5 1 -10 -4 -10 -6
0 -11 5 -11 10 0 6 2 10 4 10 3 0 8 -4 11 -10z m-805 -518 c-6 -2 -17 -11 -26
-19 -9 -10 -50 -20 -102 -27 -48 -6 -93 -15 -101 -20 -10 -6 -16 -6 -19 2 -3
9 -36 10 -124 5 -97 -5 -122 -4 -129 8 -7 11 -9 11 -9 -2 0 -9 7 -20 17 -23 9
-4 337 -6 729 -6 l712 0 91 -114 90 -114 123 -4 c68 -2 125 -2 127 -1 4 3 -97
133 -116 149 -7 6 -10 14 -6 17 3 4 -4 7 -16 7 -25 0 -51 21 -51 42 0 18 -47
38 -90 38 -28 0 -43 8 -70 37 -19 20 -35 42 -35 49 0 7 -28 41 -63 74 -37 37
-61 68 -58 76 3 8 -6 26 -19 40 -30 32 -31 41 -6 49 25 7 114 -53 106 -73 -3
-7 0 -10 6 -7 15 10 271 -166 357 -245 20 -19 24 -19 37 -6 9 8 14 31 14 53
l-2 38 -6 -40 c-6 -43 -33 -56 -40 -20 -3 17 -1 18 13 6 25 -21 21 7 -5 35
-18 19 -19 23 -5 37 9 8 24 14 33 13 14 -2 19 -14 21 -61 2 -40 -1 -61 -10
-66 -10 -7 -10 -9 2 -10 10 0 8 -3 -5 -9 -18 -8 -18 -9 -2 -9 10 -1 17 -7 14
-13 -4 -13 72 -120 158 -223 160 -191 240 -357 270 -555 19 -120 19 -180 0
-302 -31 -205 -115 -378 -290 -598 l-56 -70 -169 0 -170 0 -45 -57 c-25 -32
-62 -84 -83 -115 l-37 -58 -1705 0 -1705 0 -40 97 c-28 68 -64 129 -121 206
-93 125 -154 226 -194 325 -93 230 -104 501 -29 727 45 136 111 241 296 473
98 123 118 143 136 138 12 -4 34 -9 50 -12 15 -4 27 -10 27 -14 0 -4 -15 -27
-33 -51 -18 -24 -43 -59 -56 -76 l-22 -33 128 0 129 0 69 86 c39 48 80 98 92
113 l21 26 743 3 742 2 -7 145 c-6 130 -5 145 10 145 9 0 28 8 42 18 15 10 65
38 112 61 47 24 108 58 135 76 28 18 77 46 110 61 33 16 62 31 65 34 3 3 16
10 30 16 l25 11 3 -241 c1 -160 -1 -242 -8 -244z m2417 306 c-3 -7 -5 -2 -5
12 0 14 2 19 5 13 2 -7 2 -19 0 -25z m-1672 -5 c-37 -9 -40 -23 -7 -29 18 -4
32 -13 32 -20 0 -18 -8 -18 -27 1 -9 10 -24 13 -37 10 -17 -5 -18 -4 -6 4 12
9 10 11 -10 11 -24 1 -24 1 5 15 17 7 39 13 50 13 l20 0 -20 -5z m90 -13 c3
-5 1 -10 -4 -10 -6 0 -11 5 -11 10 0 6 2 10 4 10 3 0 8 -4 11 -10z m-48 -6
c-3 -3 -12 -4 -19 -1 -8 3 -5 6 6 6 11 1 17 -2 13 -5z m-2477 -16 c0 -7 12
-22 27 -32 23 -17 47 -20 200 -22 142 -1 173 1 173 12 0 18 80 19 127 2 32
-12 33 -14 33 -64 0 -29 2 -58 3 -66 2 -7 2 -10 0 -6 -3 5 -14 1 -26 -7 -12
-8 -29 -15 -39 -15 -13 0 -18 -8 -18 -25 0 -22 -4 -25 -40 -25 -31 0 -40 -4
-40 -17 0 -14 -10 -19 -48 -21 -55 -3 -112 -20 -112 -33 0 -5 -36 -9 -80 -9
-47 0 -80 4 -80 10 0 6 -19 10 -43 10 -51 0 -139 27 -150 47 -4 7 -17 13 -27
13 -17 0 -20 7 -20 40 0 36 -2 40 -26 40 -15 0 -23 4 -18 11 3 6 14 9 23 6 11
-2 17 2 17 13 0 11 -6 15 -17 13 -9 -3 -20 0 -23 6 -4 7 -1 8 8 5 9 -3 16 -2
16 4 0 6 -4 12 -9 14 -4 2 19 20 53 41 55 34 49 24 -16 -26 -23 -18 -23 -18 4
-2 15 9 33 13 39 9 7 -4 9 -3 6 3 -8 13 67 83 88 83 8 0 15 -6 15 -12z m3067
-160 c-3 -8 -6 -5 -6 6 -1 11 2 17 5 13 3 -3 4 -12 1 -19z m-70 -114 c-3 -3
-12 -4 -19 -1 -8 3 -5 6 6 6 11 1 17 -2 13 -5z m-281 -66 c4 -7 3 -8 -4 -4 -7
4 -12 2 -12 -5 0 -7 -3 -10 -6 -6 -6 5 3 27 11 27 2 0 7 -5 11 -12z m161 -74
c-3 -3 -12 -4 -19 -1 -8 3 -5 6 6 6 11 1 17 -2 13 -5z m-4417 -60 c0 -8 -4
-14 -10 -14 -5 0 -10 9 -10 21 0 11 5 17 10 14 6 -3 10 -13 10 -21z m5150
-119 c79 -85 160 -185 158 -193 -2 -6 0 -9 3 -9 9 3 49 -34 49 -44 0 -9 -78
-68 -157 -118 l-52 -33 -28 26 -28 26 -3 201 c-4 223 -8 215 58 144z m-5062
-207 l-3 -163 -94 -135 c-134 -192 -146 -207 -182 -214 -17 -3 -81 -27 -143
-53 -120 -51 -116 -51 -318 -37 -54 3 -98 9 -98 12 0 22 298 542 314 547 51
16 228 85 356 139 85 36 159 66 163 66 5 0 7 -73 5 -162z m5366 -250 c-4 -62
-7 -151 -8 -198 -1 -80 0 -85 19 -82 11 2 53 25 93 53 39 27 72 45 72 41 0 -5
26 -35 58 -69 42 -44 67 -62 94 -67 40 -7 38 -3 54 -136 3 -32 18 -76 35 -106
16 -28 29 -55 29 -59 0 -4 -20 -5 -45 -2 -25 4 -67 2 -94 -4 -47 -10 -60 -22
-122 -111 -3 -5 -25 -2 -48 7 -24 8 -67 15 -96 15 -48 0 -56 3 -84 35 -17 20
-47 66 -65 103 -19 37 -46 82 -60 101 -14 19 -26 38 -26 42 0 4 47 10 105 14
58 4 105 11 105 15 0 9 -65 68 -98 90 -21 13 -22 19 -13 43 6 16 11 41 11 56
0 15 5 32 11 38 8 8 7 11 -4 10 -8 -1 -29 15 -46 37 l-31 38 27 47 c36 62 112
161 124 161 6 0 7 -43 3 -112z m116 -985 c69 -34 154 -118 182 -180 32 -71 36
-209 9 -287 -41 -115 -125 -196 -242 -230 -150 -45 -318 18 -411 154 -142 208
-38 499 201 567 72 20 193 9 261 -24z m-5072 -287 c14 3 44 -25 38 -35 -4 -7
-1 -8 8 -5 20 8 21 0 2 -15 -11 -9 -26 3 -77 61 -44 51 -50 61 -20 33 23 -22
45 -39 49 -39z m118 -89 c6 2 18 -5 27 -15 16 -17 15 -18 -12 -18 -17 0 -29 2
-29 5 3 14 -15 40 -24 35 -5 -3 -4 -13 3 -22 7 -10 2 -7 -11 5 -20 19 -21 24
-10 38 12 14 15 13 29 -8 9 -13 21 -22 27 -20z m29 -56 c3 -5 2 -12 -3 -15 -5
-3 -9 1 -9 9 0 17 3 19 12 6z m99 -63 c-3 -4 -17 -5 -32 -1 -25 6 -26 5 -12
-13 14 -18 14 -18 -2 -5 -24 18 -23 31 1 31 11 0 23 5 27 11 4 8 9 7 15 -2 4
-7 5 -17 3 -21z m114 -55 c20 -8 48 -25 61 -36 13 -12 21 -16 17 -9 -4 6 10 2
31 -10 l38 -22 -25 30 c-13 16 15 -9 63 -56 48 -47 85 -90 83 -97 -3 -7 0 -15
6 -19 7 -4 8 -3 4 4 -13 21 4 13 35 -16 l30 -28 -25 0 c-19 0 -23 3 -15 12 8
10 5 12 -13 11 -22 -1 -32 -7 -63 -35 -8 -7 -29 -18 -46 -24 -29 -10 -34 -9
-51 12 -10 12 -18 28 -18 36 0 8 -5 14 -10 14 -10 0 -147 132 -212 205 l-36
40 54 2 c30 1 71 -5 92 -14z m-431 -49 c21 -16 49 -52 62 -79 l24 -50 61 0
c51 0 68 -5 105 -30 51 -34 81 -87 89 -151 5 -44 5 -44 43 -44 32 0 39 -4 40
-20 1 -11 3 -24 4 -30 1 -5 3 -52 4 -104 1 -89 2 -95 24 -102 31 -9 56 -32 89
-83 50 -79 35 -176 -35 -238 -59 -52 -129 -61 -209 -28 -16 6 -18 1 -19 -41
-1 -27 -2 -53 -4 -59 -1 -5 -3 -45 -3 -88 l-2 -78 -27 5 c-16 2 -175 5 -355 5
l-328 1 0 88 0 87 -73 55 -72 55 -2 175 -3 175 75 44 75 45 0 87 c0 47 3 107
6 133 l7 46 67 0 68 0 -6 45 c-5 49 15 114 47 152 59 70 177 83 248 27z m743
-228 c0 -2 -8 -10 -17 -17 -16 -13 -17 -12 -4 4 13 16 21 21 21 13z m61 -23
c13 -16 12 -17 -3 -4 -17 13 -22 21 -14 21 2 0 10 -8 17 -17z m34 -33 c3 -6
-1 -7 -9 -4 -18 7 -21 14 -7 14 6 0 13 -4 16 -10z m28 -33 c7 3 9 2 4 -2 -4
-5 -16 -9 -27 -10 -16 -1 -17 1 -8 13 8 9 14 10 16 3 2 -6 9 -8 15 -4z m3852
-387 l0 -365 -405 0 -405 0 -3 345 c-1 190 0 355 3 368 l5 22 403 -2 402 -3 0
-365z m-3805 345 c11 -13 10 -14 -4 -9 -9 3 -16 10 -16 15 0 13 6 11 20 -6z
m24 -55 c4 0 4 6 0 13 -5 8 -3 8 9 -2 21 -17 12 -34 -11 -22 -9 5 -28 22 -42
38 l-25 28 31 -27 c16 -16 33 -28 38 -28z m81 -70 c3 -5 1 -10 -4 -10 -6 0
-11 5 -11 10 0 6 2 10 4 10 3 0 8 -4 11 -10z m1289 -130 c4 -26 11 -40 21 -40
11 0 15 -11 15 -40 0 -33 -3 -40 -20 -40 -17 0 -20 7 -20 40 0 22 -4 40 -10
40 -13 0 -14 -157 -1 -162 5 -1 3 -9 -5 -16 -12 -11 -14 6 -13 122 1 102 4
136 14 136 7 0 15 -18 19 -40z m506 -275 c0 -293 -8 -385 -32 -385 -5 0 -8 -8
-8 -17 -1 -27 -56 -134 -65 -126 -4 5 -4 -3 0 -17 7 -24 6 -24 -8 -5 -13 17
-13 21 0 31 12 8 13 15 6 29 -7 12 -13 14 -17 6 -4 -6 -2 -11 3 -11 6 0 11 -5
11 -10 0 -6 -8 -5 -20 2 -11 7 -16 14 -10 16 5 2 10 10 10 18 0 19 -41 62 -46
49 -3 -5 -9 -17 -14 -25 -9 -13 -12 -13 -20 2 -6 9 -24 24 -42 32 -40 20 -49
20 -20 0 12 -8 22 -20 22 -26 0 -5 -22 11 -50 38 -27 26 -47 51 -44 55 2 4 0
10 -5 14 -10 5 -9 -7 5 -54 7 -23 6 -24 -36 -17 -23 4 -76 22 -117 41 l-73 34
1 -114 1 -115 41 28 c60 41 153 92 166 92 8 0 11 -63 11 -219 l0 -220 -37 15
c-20 9 -69 38 -110 65 l-73 50 0 -121 c0 -66 3 -120 6 -120 3 0 23 14 44 30
21 17 54 37 74 45 46 20 106 20 106 1 0 -8 -55 -58 -122 -112 -68 -53 -142
-115 -165 -138 -24 -22 -43 -34 -43 -27 0 7 -18 31 -41 54 -23 23 -64 68 -91
100 l-50 57 38 -6 c22 -3 47 -10 57 -15 9 -5 17 -7 17 -4 0 3 13 -2 30 -11 22
-13 30 -27 33 -53 2 -20 4 48 5 150 l2 186 -45 13 c-24 7 -50 18 -56 26 -11
14 -50 185 -44 195 2 3 -1 6 -8 6 -7 0 -28 3 -47 7 -33 6 -34 6 -16 -8 11 -9
17 -18 14 -22 -10 -9 -181 163 -174 175 5 7 1 8 -10 4 -14 -5 -16 -3 -11 11 4
9 3 15 -2 12 -5 -3 -15 2 -22 11 -12 15 -12 16 4 10 9 -3 17 -2 17 3 0 5 24
14 54 20 61 13 70 9 211 -91 106 -75 116 -88 125 -156 l8 -58 0 75 c0 41 1 87
1 102 1 36 107 151 132 145 15 -4 16 -1 8 20 -5 13 -9 74 -9 134 l0 109 28 13
c15 6 52 26 82 43 30 18 84 47 120 66 114 61 253 139 274 154 11 8 24 14 28
14 5 0 8 -137 8 -305z m1080 186 c0 -18 -108 -111 -129 -111 -6 0 -11 -3 -11
-7 0 -5 -17 -19 -38 -33 -20 -14 -39 -28 -42 -31 -8 -9 -47 -29 -59 -29 -5 0
-12 8 -15 18 -3 9 -20 32 -36 50 -35 36 -32 40 7 15 26 -17 27 -17 20 0 -3 9
-2 17 2 17 11 0 81 69 81 80 0 11 56 29 98 32 18 1 41 9 50 18 14 14 20 14 44
2 16 -7 28 -17 28 -21z m-426 -232 c21 -6 60 -30 86 -55 47 -44 47 -44 122
-44 l74 0 67 -70 c42 -44 65 -76 60 -83 -4 -6 -64 -79 -133 -162 -147 -175
-299 -362 -321 -395 -15 -22 -16 -21 -95 76 -45 55 -154 186 -242 293 -185
222 -178 192 -70 290 l56 51 72 0 c71 0 74 1 117 41 72 66 125 81 207 58z
m-1874 -39 c0 -5 -10 -14 -22 -20 -20 -9 -21 -9 -7 2 9 7 14 19 11 27 -3 8 0
11 7 7 6 -4 11 -11 11 -16z m76 -117 c0 -25 3 -37 12 -35 6 1 12 -5 12 -15 0
-15 -2 -15 -19 1 -11 10 -17 25 -14 34 5 11 3 13 -7 7 -9 -5 -11 -4 -6 3 4 7
4 17 0 23 -5 8 -9 8 -14 -1 -5 -9 -9 -8 -13 2 -3 10 4 15 23 16 26 2 27 0 26
-35z m967 -276 c3 -8 -1 -14 -8 -14 -7 0 -11 6 -8 14 3 7 6 13 8 13 2 0 5 -6
8 -13z m65 -98 c18 -28 -9 -14 -32 17 -18 25 -18 25 2 13 10 -6 24 -20 30 -30z
m1372 -224 c0 -9 -6 -12 -16 -8 -13 5 -13 7 -2 14 17 11 18 11 18 -6z m-1280
-255 c0 -5 -5 -10 -11 -10 -5 0 -7 5 -4 10 3 6 8 10 11 10 2 0 4 -4 4 -10z"/>
<path d="M3330 8172 c-118 -59 -217 -108 -219 -110 -3 -1 50 -113 118 -247 67
-135 125 -260 128 -278 4 -28 0 -40 -27 -70 l-32 -36 18 -31 c10 -16 22 -30
26 -30 4 0 32 16 62 35 30 19 60 35 66 35 18 0 11 36 -25 113 -19 42 -35 82
-35 89 0 7 58 40 129 74 l128 61 48 -98 47 -98 47 19 c112 44 109 41 86 96
-14 34 -17 36 -57 32 l-43 -3 -115 277 c-63 153 -119 278 -125 277 -5 0 -107
-48 -225 -107z"/>
<path d="M2464 7181 c-86 -14 -177 -94 -211 -184 -16 -45 -16 -158 1 -198 25
-60 82 -124 137 -154 47 -26 64 -30 134 -30 93 0 139 19 215 91 67 63 94 128
88 215 -6 81 -36 138 -104 198 -70 62 -148 80 -260 62z m159 -221 c31 -38 57
-73 57 -79 0 -12 -121 -107 -156 -123 -29 -13 -21 -19 -104 83 l-29 36 57 45
c32 25 69 59 82 76 14 17 27 31 30 31 3 0 31 -31 63 -69z m140 -180 c6 -8 8
-11 3 -7 -10 8 -36 -10 -36 -25 0 -6 8 -4 18 3 15 13 16 12 3 -4 -17 -22 -26
-14 -26 23 0 29 16 34 38 10z m-66 -83 c-17 -11 -38 -21 -47 -22 -8 -1 -14 -9
-14 -18 1 -9 -4 -13 -12 -10 -8 3 -14 0 -14 -7 0 -6 -5 -8 -10 -5 -7 4 -2 14
12 26 18 17 20 22 8 29 -8 5 -11 13 -6 17 5 4 11 2 13 -4 5 -14 24 -18 22 -5
-3 15 2 17 40 17 l39 0 -31 -18z"/>
<path d="M2650 6706 c0 -2 7 -7 16 -10 8 -3 12 -2 9 4 -6 10 -25 14 -25 6z"/>
<path d="M5091 7006 c-14 -14 -23 -28 -20 -30 7 -8 51 33 47 44 -2 6 -14 0
-27 -14z"/>
<path d="M5020 6940 c-9 -6 -10 -10 -3 -10 6 0 15 5 18 10 8 12 4 12 -15 0z"/>
<path d="M3450 7009 c0 -11 4 -18 10 -14 5 3 7 12 3 20 -7 21 -13 19 -13 -6z"/>
<path d="M3344 6948 c-4 -7 -3 -8 4 -4 7 4 12 1 12 -6 1 -17 39 -63 46 -55 3
3 -4 15 -15 26 -12 12 -21 28 -21 36 0 18 -16 20 -26 3z"/>
<path d="M3419 6951 c12 -8 12 -12 2 -25 -8 -9 -9 -16 -3 -16 12 0 24 29 16
41 -3 5 -11 9 -17 9 -8 0 -7 -4 2 -9z"/>
<path d="M3385 6940 c3 -5 8 -10 11 -10 2 0 4 5 4 10 0 6 -5 10 -11 10 -5 0
-7 -4 -4 -10z"/>
<path d="M3525 6939 c-4 -6 -5 -12 -2 -15 2 -3 7 2 10 11 7 17 1 20 -8 4z"/>
<path d="M3530 6906 c0 -2 8 -10 18 -17 15 -13 16 -12 3 4 -13 16 -21 21 -21
13z"/>
<path d="M3406 6862 c5 -4 12 -11 15 -15 3 -5 9 -2 12 5 3 9 -3 14 -15 15 -11
1 -16 -1 -12 -5z"/>
<path d="M6430 6581 c0 -9 30 -24 36 -18 2 1 -6 8 -16 15 -11 7 -20 8 -20 3z"/>
<path d="M3537 6133 c-73 -90 -126 -139 -160 -152 -16 -6 -102 -11 -197 -11
l-168 0 -30 -35 c-89 -101 -178 -268 -213 -402 -28 -102 -30 -294 -5 -406 34
-157 150 -382 251 -489 l26 -28 175 0 175 0 50 -47 c27 -25 72 -77 100 -115
l51 -68 1418 0 1417 0 36 54 c20 30 62 82 94 116 l58 61 158 0 157 0 52 62
c120 144 199 291 241 450 17 66 21 110 21 222 0 123 -4 151 -27 228 -41 132
-114 266 -199 362 l-30 35 -159 0 c-215 0 -218 1 -341 148 l-69 82 -1413 0
-1414 0 -55 -67z m2703 -755 l0 -698 -1220 0 -1220 0 0 698 0 699 1220 -1
1220 -1 0 -697z m-2921 368 c68 -36 80 -114 30 -189 -32 -49 -73 -87 -93 -87
-13 0 -84 71 -110 110 -33 50 -12 135 42 164 35 19 95 20 131 2z m3511 -1 c47
-25 70 -62 70 -116 0 -42 -5 -53 -34 -83 -19 -19 -49 -37 -66 -41 -40 -9 -109
24 -133 64 -62 105 55 232 163 176z m-3739 -281 c43 -30 79 -61 79 -68 0 -16
-32 -45 -103 -91 -64 -42 -151 -60 -168 -34 -5 8 -9 67 -9 132 l0 117 61 0
c58 0 65 -3 140 -56z m529 -75 l0 -132 -55 6 c-41 4 -70 16 -122 50 -65 42
-111 83 -102 91 2 2 40 29 83 60 74 53 82 56 137 56 l59 0 0 -131z m2974 100
c54 -43 69 -103 40 -165 -43 -91 -191 -83 -230 13 -22 51 -10 100 33 140 29
28 42 33 82 33 34 0 56 -6 75 -21z m502 2 c30 -18 64 -74 64 -105 0 -35 -30
-86 -62 -106 -87 -53 -198 14 -198 119 0 25 9 42 39 72 33 33 45 39 82 39 25
0 57 -8 75 -19z m-3769 -227 c46 -50 66 -102 56 -143 -21 -93 -162 -117 -227
-40 -30 35 -33 76 -10 125 21 44 88 104 116 104 13 0 39 -19 65 -46z m3513
-11 c47 -33 59 -55 60 -112 0 -49 -3 -57 -36 -87 -30 -29 -42 -34 -85 -34 -42
0 -55 5 -85 33 -63 57 -56 156 14 200 35 22 101 22 132 0z m-3540 -329 c50
-20 80 -67 80 -125 0 -76 -49 -119 -136 -119 -41 0 -51 5 -85 39 -33 33 -39
45 -39 82 0 55 27 100 71 122 43 21 59 21 109 1z m1113 -343 c31 -26 38 -48
26 -74 -22 -47 -89 -61 -132 -27 -50 40 -43 90 16 115 35 15 62 11 90 -14z
m-509 -2 c32 -25 35 -68 5 -95 -15 -14 -36 -19 -73 -19 -67 0 -106 24 -106 65
0 42 40 70 100 70 33 0 55 -6 74 -21z m265 -5 c28 -36 26 -68 -5 -93 -36 -29
-85 -27 -118 4 -31 29 -33 53 -5 89 16 21 29 26 64 26 35 0 48 -5 64 -26z
m468 4 c29 -27 30 -71 1 -98 -29 -27 -54 -25 -83 5 -31 30 -32 62 -3 92 27 29
55 29 85 1z m740 0 c36 -39 31 -85 -11 -107 -33 -18 -65 -5 -81 31 -15 37 -9
64 18 83 30 21 50 19 74 -7z m273 12 c23 -12 39 -59 30 -86 -25 -67 -190 -47
-190 23 0 45 36 73 92 73 27 0 58 -4 68 -10z m284 -11 c32 -25 35 -68 5 -95
-29 -26 -99 -25 -136 2 -39 29 -40 49 -5 84 38 37 95 41 136 9z m306 -4 c29
-26 24 -75 -10 -92 -14 -7 -47 -13 -75 -13 -68 0 -99 17 -103 57 -2 24 3 36
25 53 23 18 37 21 85 18 38 -3 64 -11 78 -23z"/>
<path d="M3090 4514 c0 -3 14 -35 31 -70 l30 -64 156 0 c176 0 170 -5 101 84
l-43 56 -137 0 c-76 0 -138 -3 -138 -6z"/>
<path d="M3800 6627 c0 -7 10 -18 21 -26 19 -11 21 -11 15 4 -3 9 -6 21 -6 26
0 5 -7 9 -15 9 -8 0 -15 -6 -15 -13z"/>
<path d="M4000 6570 c0 -5 18 -10 40 -10 22 0 40 5 40 10 0 6 -18 10 -40 10
-22 0 -40 -4 -40 -10z"/>
<path d="M2110 5766 c-96 -39 -180 -75 -187 -79 -11 -7 -42 -58 -150 -245 -59
-103 -63 -118 -32 -101 12 6 38 9 59 5 33 -5 57 3 172 59 l134 65 85 118 c79
111 84 120 90 182 3 36 5 65 5 66 -1 1 -80 -31 -176 -70z"/>
<path d="M7868 5277 c-21 -12 -38 -26 -38 -30 0 -4 10 -23 23 -42 l23 -34 30
18 c16 10 38 28 49 41 l20 22 -30 24 c-36 29 -31 28 -77 1z"/>
<path d="M7999 5156 l-47 -42 32 -21 c42 -28 77 -45 82 -41 2 2 -2 36 -9 75
l-12 71 -46 -42z"/>
<path d="M7711 5053 c33 -56 33 -56 57 -8 l22 45 -51 0 -51 0 23 -37z"/>
<path d="M7847 5014 l-27 -54 25 0 c13 0 27 -4 30 -10 11 -17 23 -11 51 25 29
39 25 54 -26 80 -26 14 -27 13 -53 -41z"/>
<path d="M7622 4541 c-29 -10 -70 -32 -90 -48 -93 -75 -125 -232 -69 -339 54
-105 149 -160 272 -158 201 4 320 217 226 408 -64 130 -200 185 -339 137z
m205 -107 c86 -69 108 -188 49 -273 -74 -106 -238 -107 -315 -1 -56 77 -51
175 12 247 44 50 80 64 154 60 52 -2 69 -8 100 -33z"/>
<path d="M7654 4362 c-45 -36 -56 -90 -29 -142 18 -35 43 -50 85 -50 46 0 85
24 104 65 22 46 14 87 -26 120 -36 30 -101 34 -134 7z m101 -47 c31 -30 31
-47 2 -81 -18 -21 -29 -26 -48 -21 -52 13 -64 92 -17 115 33 15 36 15 63 -13z"/>
<path d="M2801 4313 c7 -12 15 -20 18 -17 3 2 -3 12 -13 22 -17 16 -18 16 -5
-5z"/>
<path d="M2915 4220 c3 -5 11 -10 16 -10 6 0 7 5 4 10 -3 6 -11 10 -16 10 -6
0 -7 -4 -4 -10z"/>
<path d="M3365 3850 c-2 -3 5 -6 15 -7 11 -1 22 2 24 5 3 4 -4 8 -15 8 -11 0
-22 -3 -24 -6z"/>
<path d="M2559 3921 c-44 -45 -38 -115 14 -143 74 -40 165 40 133 117 -26 63
-97 75 -147 26z"/>
<path d="M2825 3778 c-60 -33 -74 -114 -29 -167 58 -69 174 -20 173 74 0 77
-80 129 -144 93z"/>
<path d="M2390 3583 l0 -111 -75 -48 -75 -49 0 -127 c0 -116 2 -128 19 -138
34 -18 51 -11 113 43 54 47 67 66 126 187 74 155 144 322 136 329 -7 7 -27 10
-141 17 l-103 7 0 -110z"/>
<path d="M3034 3549 c-30 -34 -114 -69 -164 -69 l-46 0 -217 -218 -217 -218 0
-82 0 -81 259 2 259 2 4 195 c3 157 6 201 20 225 21 39 66 81 101 94 26 10 27
12 27 91 0 44 -2 80 -3 80 -2 0 -12 -10 -23 -21z"/>
<path d="M3058 3305 c-31 -17 -52 -71 -42 -109 16 -66 109 -88 157 -38 78 81
-16 200 -115 147z"/>
<path d="M6729 3585 c0 0 -3 -125 -6 -277 l-5 -278 321 0 321 0 0 279 0 280
-315 -2 c-173 -1 -315 -2 -316 -2z m262 -175 c9 0 38 9 63 21 53 23 78 19 141
-24 30 -20 43 -23 67 -17 29 9 29 9 23 -23 -4 -18 -22 -47 -41 -65 -19 -18
-34 -39 -34 -47 0 -7 -10 -16 -22 -19 -13 -3 -36 -24 -52 -47 -36 -51 -67 -66
-101 -51 -34 16 -61 15 -88 -2 -20 -13 -26 -11 -74 25 -29 22 -53 46 -53 54 0
7 11 27 25 43 31 37 31 43 -1 81 -32 38 -28 59 14 87 33 23 33 23 75 4 23 -11
49 -20 58 -20z"/>
<path d="M7041 3328 l-43 -31 -23 29 c-27 34 -45 26 -21 -10 22 -34 20 -48 -6
-71 -21 -18 -22 -20 -4 -23 10 -2 25 3 34 12 14 14 19 13 49 -5 36 -23 54 -19
46 10 -3 14 7 27 42 51 45 31 46 33 29 51 -24 27 -52 23 -103 -13z"/>
<path d="M5065 2861 c-3 -5 -2 -12 3 -15 5 -3 9 1 9 9 0 17 -3 19 -12 6z"/>
<path d="M5235 2750 c3 -5 8 -10 11 -10 2 0 4 5 4 10 0 6 -5 10 -11 10 -5 0
-7 -4 -4 -10z"/>
<path d="M5347 2718 c-25 -27 -14 -35 12 -9 11 11 17 22 13 24 -4 2 -15 -5
-25 -15z"/>
<path d="M5442 2670 c0 -19 2 -27 5 -17 2 9 2 25 0 35 -3 9 -5 1 -5 -18z"/>
<path d="M6084 2974 c-17 -8 -40 -31 -50 -50 l-19 -34 -91 0 c-90 0 -91 0
-126 -34 l-36 -35 352 -3 c193 -2 362 -1 375 2 23 6 23 6 -13 38 -36 31 -39
32 -129 32 l-92 0 -14 31 c-16 36 -65 69 -101 69 -14 0 -39 -7 -56 -16z"/>
<path d="M4911 8469 c-76 -23 -140 -85 -176 -171 -19 -47 -20 -148 -1 -192 29
-71 131 -155 186 -156 9 0 25 24 39 55 13 30 27 55 32 55 4 0 19 -25 33 -56
24 -53 28 -56 53 -49 114 28 212 159 200 267 -12 99 -76 191 -162 233 -46 22
-153 29 -204 14z m113 -200 c36 -17 54 -65 35 -98 -36 -63 -121 -43 -127 31
-2 29 2 40 24 57 31 24 35 25 68 10z"/>
<path d="M6190 8297 c-14 -13 -30 -22 -36 -20 -5 2 -10 -6 -11 -18 -3 -31 -13
-37 -26 -14 -10 18 -11 18 -19 -10 -4 -17 -3 -32 3 -35 5 -4 7 -14 4 -22 -8
-20 37 -74 54 -64 6 4 9 12 6 17 -3 5 1 6 9 3 8 -3 23 -1 34 5 18 9 19 15 10
53 -5 24 -8 62 -6 86 2 23 3 42 3 42 0 0 -11 -10 -25 -23z m0 -37 c0 -5 -7
-10 -16 -10 -8 0 -13 -4 -10 -8 2 -4 1 -14 -3 -21 -6 -9 -8 -5 -8 12 0 16 6
28 16 30 9 3 17 5 19 6 1 0 2 -3 2 -9z m-40 -70 c0 -5 -2 -10 -4 -10 -3 0 -8
5 -11 10 -3 6 -1 10 4 10 6 0 11 -4 11 -10z m-20 -20 c0 -5 -2 -10 -4 -10 -3
0 -8 5 -11 10 -3 6 -1 10 4 10 6 0 11 -4 11 -10z m20 -15 c-7 -8 -17 -15 -23
-15 -6 0 -2 7 9 15 25 19 30 19 14 0z"/>
<path d="M6065 8209 c-4 -6 -5 -12 -2 -15 2 -3 7 2 10 11 7 17 1 20 -8 4z"/>
<path d="M6277 8034 c-115 -36 -182 -172 -145 -295 15 -52 73 -117 122 -140
49 -22 134 -24 180 -5 82 34 144 119 153 210 11 102 -64 210 -162 235 -56 14
-89 13 -148 -5z"/>
<path d="M7218 7363 c-202 -3 -212 -6 -189 -42 7 -10 32 -13 107 -10 55 1 158
2 229 1 l130 -2 3 -223 c1 -122 -1 -232 -4 -244 l-6 -23 -234 0 c-227 0 -234
-1 -234 -20 0 -19 7 -20 260 -20 l260 0 -2 293 -3 292 -60 0 c-33 1 -149 -1
-257 -2z"/>
<path d="M7030 7235 c0 -24 2 -25 75 -25 73 0 75 1 75 25 0 24 -2 25 -75 25
-73 0 -75 -1 -75 -25z"/>
<path d="M7022 7133 c3 -15 16 -18 86 -21 77 -3 82 -2 82 18 0 19 -6 20 -86
20 -76 0 -85 -2 -82 -17z"/>
<path d="M7023 7030 c1 -18 8 -20 84 -20 76 0 83 2 83 20 0 18 -7 20 -84 20
-79 0 -85 -1 -83 -20z"/>
<path d="M7027 6943 c-4 -3 -7 -15 -7 -25 0 -16 9 -18 85 -18 84 0 85 0 85 25
0 25 -1 25 -78 25 -43 0 -82 -3 -85 -7z"/>
<path d="M8344 5655 c21 -16 32 -13 21 4 -3 6 -14 11 -23 11 -15 -1 -15 -2 2
-15z"/>
<path d="M8310 5239 c0 -5 5 -7 10 -4 6 3 10 8 10 11 0 2 -4 4 -10 4 -5 0 -10
-5 -10 -11z"/>
<path d="M2035 4785 c-14 -13 -25 -36 -25 -50 0 -32 50 -85 80 -85 30 0 80 53
80 85 0 36 -41 75 -80 75 -19 0 -40 -9 -55 -25z"/>
<path d="M1865 4625 c-36 -35 -35 -96 1 -124 36 -29 76 -27 108 5 52 53 18
144 -54 144 -19 0 -40 -9 -55 -25z"/>
<path d="M2220 4634 c-34 -24 -40 -34 -40 -71 0 -23 8 -38 31 -57 34 -29 41
-31 72 -15 33 17 57 51 57 80 0 59 -71 97 -120 63z"/>
<path d="M2035 4445 c-14 -13 -25 -33 -25 -44 0 -56 53 -100 105 -87 26 7 55
51 55 86 0 32 -44 70 -80 70 -19 0 -40 -9 -55 -25z"/>
<path d="M3705 3085 c-50 -49 -17 -135 51 -135 76 0 115 95 58 139 -36 28 -79
27 -109 -4z"/>
<path d="M4063 3004 c-61 -25 -77 -41 -67 -68 5 -13 11 -13 46 0 22 8 53 14
69 14 27 0 29 3 29 40 0 22 -3 40 -7 40 -5 -1 -36 -12 -70 -26z"/>
<path d="M7920 2996 c0 -2 8 -10 18 -17 15 -13 16 -12 3 4 -13 16 -21 21 -21
13z"/>
<path d="M3540 2701 l0 -30 96 -3 c53 -2 97 -2 98 -1 1 2 1 16 -2 33 l-4 30
-94 0 -94 0 0 -29z"/>
<path d="M3532 2428 l3 -143 98 -1 97 0 0 143 0 143 -100 0 -101 0 3 -142z"/>
<path d="M4063 2474 c-33 -16 -63 -66 -63 -104 0 -57 55 -110 115 -110 100 0
150 112 83 185 -40 43 -88 53 -135 29z"/>
<path d="M2858 2393 c7 -3 16 -2 19 1 4 3 -2 6 -13 5 -11 0 -14 -3 -6 -6z"/>
<path d="M2968 2393 c7 -3 16 -2 19 1 4 3 -2 6 -13 5 -11 0 -14 -3 -6 -6z"/>
</g>
</svg>
